<svg xmlns="http://www.w3.org/2000/svg" width="168" height="54.6" viewBox="0 0 168 54.6"><g id="Group_194" data-name="Group 194"><g id="Group_192" data-name="Group 192"><g id="Group_189" data-name="Group 189" fill="#fff"><g id="Group_187" data-name="Group 187"><path id="Path_103" data-name="Path 103" d="M2943.1 1072.446c0 1.61-1.1 2.495-2.96 2.495h-4.09v-8.904h3.815c1.856 0 2.973.827 2.973 2.422a1.93 1.93 0 0 1-1.19 1.885 2.175 2.175 0 0 1 1.452 2.103zm-3.5-2.886c.682 0 1.044-.26 1.044-.812s-.363-.8-1.044-.8h-1.334v1.61zm-1.334 3.466h1.566c.653 0 1.016-.348 1.016-.856 0-.536-.363-.87-1.016-.87h-1.566z" transform="translate(-2888.526 -1020.34)"/><path id="Path_104" data-name="Path 104" d="M2973.04 1066.035l3.395 8.905h-2.364l-.637-1.726h-3.233l-.624 1.726h-2.306l3.394-8.905zm-2.13 5.265h1.826l-.914-2.51z" transform="translate(-2911.444 -1020.34)"/><path id="Path_105" data-name="Path 105" d="M3016.875 1074.94h-1.885l-3.727-5.207v5.207h-2.248v-8.905h2.176l3.438 4.9v-4.9h2.248z" transform="translate(-2942.096 -1020.34)"/><path id="Path_106" data-name="Path 106" d="M3050.42 1069.69l2.872-3.655h2.727l-3.12 3.916 3.25 4.99h-2.74l-2.25-3.423-.74.943v2.48h-2.334v-8.905h2.335z" transform="translate(-2970.784 -1020.34)"/></g><g id="Group_188" data-name="Group 188"><path id="Path_107" data-name="Path 107" d="M3103.612 905.787c0 3.188-2.686 5.5-6.386 5.5a9.6 9.6 0 0 1-5.19-1.34 8.15 8.15 0 0 1-1.16-.86l2.42-3.304a5.55 5.55 0 0 0 4.5 1.593.042.042 0 0 0 .022 0c.045-.006.09-.012.132-.02a.722.722 0 0 0 .09-.02 1.387 1.387 0 0 0 1.282-1.37c0-.99-.968-1.23-3.09-1.743a.11.11 0 0 1-.03-.006l-.22-.054c-.117-.027-.234-.054-.354-.084a20.18 20.18 0 0 1-.906-.24c-2.11-.63-4.02-1.772-4.02-4.593 0-2.99 2.583-5.164 6.14-5.164a8.3 8.3 0 0 1 4.287 1.013 7.882 7.882 0 0 1 .69.445c.152.11.3.226.44.347l.275.224-2.238 3.055-.292-.233a4.865 4.865 0 0 0-3.254-1.188c-1.29 0-1.867.688-1.867 1.37 0 .764.9 1.04 2.3 1.37l.4.093q.274.067.574.134.256.06.52.127l.033.01c2.55.63 4.902 1.67 4.902 4.94z" transform="translate(-3002.077 -894.085)"/><path id="Path_108" data-name="Path 108" d="M2936.588 912.477h4.135v-6.22h6.223v-3.84h-6.223v-2.74h7.418v-3.908h-11.55z" transform="translate(-2888.917 -895.32)"/><path id="Rectangle_177" data-name="Rectangle 177" transform="translate(63.255 .447)" d="M0 0h4.18v16.71H0z"/><path id="Path_109" data-name="Path 109" d="M3144.882 899.61h4.478v12.867h4.044V899.61h4.433v-3.842h-12.954z" transform="translate(-3041.858 -895.32)"/><path id="Path_110" data-name="Path 110" d="M3038.62 904.945a4.524 4.524 0 0 0 2.955-4.22c0-3.074-2.43-4.957-6.913-4.957h-6.245v16.686h4.53v-6.007h1.644l3.22 6.007h5.052zm-4.744-1.645h-.93v-4.148h.93c1.478 0 2.932.358 2.932 1.907 0 1.788-1.454 2.24-2.932 2.24z" transform="translate(-2956.343 -895.32)"/><path id="Path_111" data-name="Path 111" d="M2945.42 985.046h-5.207v-6.265h-4.157v16.71h4.157v-6.355h5.206v6.355h4.156v-16.71h-4.157z" transform="translate(-2888.526 -956.274)"/><path id="Path_112" data-name="Path 112" d="M3009.352 977.93a8.607 8.607 0 0 0-6.052 14.655 8.56 8.56 0 0 0 14.61-6.075 8.58 8.58 0 0 0-8.558-8.58zm4.4 8.58a4.38 4.38 0 1 1-4.4-4.513 4.4 4.4 0 0 1 4.4 4.513z" transform="translate(-2936.077 -955.65)"/><path id="Rectangle_178" data-name="Rectangle 178" transform="translate(103.143 22.507)" d="M0 0h4.18v16.71H0z"/><path id="Path_113" data-name="Path 113" d="M3189.605 982.44v-3.66h-11.87v3.82h6.94l-7.146 9.83-.02.027v3.034h12.19v-3.862h-6.772z" transform="translate(-3065.816 -956.274)"/><path id="Path_114" data-name="Path 114" d="M3242.047 977.93a8.608 8.608 0 0 0-6.053 14.655 8.56 8.56 0 0 0 14.61-6.075 8.58 8.58 0 0 0-8.557-8.58zm4.4 8.58a4.38 4.38 0 1 1-4.4-4.513 4.4 4.4 0 0 1 4.4 4.513z" transform="translate(-3106.936 -955.65)"/><path id="Path_115" data-name="Path 115" d="M3321.98 978.78v9.66l-6.036-9.612-.03-.047h-4.27v16.71h3.975v-10.133l6.305 10.086.03.047h3.977v-16.71z" transform="translate(-3164.305 -956.274)"/><path id="Path_116" data-name="Path 116" d="M3089.185 987.958a4.523 4.523 0 0 0 2.956-4.22c0-3.074-2.43-4.957-6.912-4.957h-6.245v16.687h4.53v-6.007h1.644l3.218 6.007h5.053zm-4.743-1.645h-.93v-4.147h.93c1.478 0 2.932.358 2.932 1.907 0 1.788-1.455 2.24-2.933 2.24z" transform="translate(-2993.47 -956.274)"/></g></g><g id="Group_191" data-name="Group 191"><path id="Path_117" data-name="Path 117" d="M2796.385 895.144H2757.2v34.413a4.774 4.774 0 0 0 4.774 4.774h34.413" transform="translate(-2757.198 -894.863)" fill="#fff"/><g id="Group_190" data-name="Group 190"><path id="Path_118" data-name="Path 118" d="M2833.73 926.875v-23.29h-22.586a36.837 36.837 0 0 1 22.585 23.29" transform="translate(-2796.808 -901.062)" fill="#f93822"/><path id="Path_119" data-name="Path 119" d="M2797.827 944.01a32.2 32.2 0 0 0-4.354-16.21l-7.83 5.4v8.425l-6.467-4.91-10.827 4.91 6.237-9.46-4.768-5.318 8.72-.22 6.752-8.2a32.24 32.24 0 0 0-19.65-6.82v29.146a3.4 3.4 0 0 0 3.4 3.4h28.787z" transform="translate(-2763.397 -906.95)" fill="#0050b5"/><path id="Path_120" data-name="Path 120" d="M2840.907 938.326v7.922l7.225.173a32.66 32.66 0 0 0-7.225-8.093" transform="translate(-2818.662 -926.57)" fill="#0050b6"/></g></g></g><g id="Group_193" data-name="Group 193"><path id="Path_121" data-name="Path 121" d="M3380.58 1031.362a1.6 1.6 0 1 1-1.59-1.552 1.56 1.56 0 0 1 1.59 1.552zm-2.792 0a1.2 1.2 0 0 0 1.21 1.24 1.188 1.188 0 0 0 1.183-1.23 1.2 1.2 0 1 0-2.393-.01zm.955.813h-.36v-1.552a3.14 3.14 0 0 1 .6-.047.967.967 0 0 1 .54.114.43.43 0 0 1 .15.34.4.4 0 0 1-.32.36v.02a.457.457 0 0 1 .283.378 1.184 1.184 0 0 0 .114.388h-.388a1.317 1.317 0 0 1-.123-.378c-.03-.17-.124-.246-.323-.246h-.17zm.01-.88h.17c.2 0 .36-.066.36-.227 0-.142-.1-.237-.33-.237a.852.852 0 0 0-.2.02z" transform="translate(-3212.58 -993.742)" fill="#fff"/></g></g></svg>